<svg width="390" height="61" viewBox="0 0 390 61" fill="none" xmlns="http://www.w3.org/2000/svg">
<path d="M29.5555 40.747V43.9618C29.5555 51.4361 28.179 61 14.4944 61C4.3726 61 0 55.6957 0 44.7655V15.7523C0 5.46509 5.18234 0 14.7373 0C27.3692 0 29.3936 8.19763 29.3936 15.9934V19.6904H17.8143V14.6271C17.8143 11.332 17.0855 9.72464 14.7373 9.72464C12.389 9.72464 11.5793 11.2516 11.5793 14.6271V45.971C11.5793 49.1054 12.1461 51.2754 14.7373 51.2754C17.2475 51.2754 17.9762 49.4269 17.9762 45.7299V40.8274H29.5555V40.747Z" fill="#001B2F"/>
<path d="M47.6653 46.1507L46.2078 60.2153H34.4666L42.8879 0.983398H59.9734L68.6376 60.2153H56.7344L55.1149 46.1507H47.6653ZM54.0623 36.1046C53.2525 28.5499 52.0379 16.9768 51.4711 11.351H50.9853C50.7423 15.4498 49.3658 28.791 48.556 36.1046H54.0623Z" fill="#001B2F"/>
<path d="M85.0558 34.4972V60.2153H73.6384V0.983398H88.5376C98.4974 0.983398 103.518 5.32332 103.518 15.6909V17.7805C103.518 26.2192 100.117 28.7107 97.5258 29.9162C101.251 31.6843 102.951 34.4169 102.951 42.6949C102.951 48.4011 102.87 57.0809 103.356 60.1349H92.2624C91.5337 57.4827 91.6147 49.7673 91.6147 42.2127C91.6147 35.542 90.8859 34.4169 86.5133 34.4169H85.0558V34.4972ZM85.1367 25.4959H86.5943C90.4 25.4959 92.0195 24.2904 92.0195 18.7449V15.8516C92.0195 11.9136 91.2098 9.90435 86.9991 9.90435H85.2177V25.4959H85.1367Z" fill="#001B2F"/>
<path d="M108.677 0.983398H122.766C135.074 0.983398 139.285 6.52885 139.285 18.8253V41.0875C139.285 51.2943 137.099 60.2153 123.495 60.2153H108.596V0.983398H108.677ZM120.175 51.0532H122.442C126.977 51.0532 127.706 48.16 127.706 43.4986V16.9768C127.706 12.6369 126.734 10.2258 122.361 10.2258H120.175V51.0532Z" fill="#001B2F"/>
<path d="M155.796 0.983398H144.298V60.2153H155.796V0.983398Z" fill="#001B2F"/>
<path d="M191.921 16.7167V44.2029C191.921 55.9368 186.333 61 175.888 61C166.009 61 160.907 55.8564 160.907 44.3636V16.3953C160.907 4.98287 167.223 0 176.454 0C185.686 0 191.921 4.9025 191.921 16.7167ZM172.568 15.4308V45.7299C172.568 49.4269 173.863 51.2754 176.374 51.2754C179.046 51.2754 180.26 49.5072 180.26 45.6495V15.3505C180.26 11.6535 179.208 9.72464 176.374 9.72464C173.863 9.80501 172.568 11.4928 172.568 15.4308Z" fill="#001B2F"/>
<path d="M197.434 0.738281H206.503C215.005 0.738281 218.163 5.64078 218.163 13.1955V16.1691C218.163 24.4471 215.896 27.0993 212.657 28.2244C216.301 29.1889 219.459 32.484 219.459 40.119V44.459C219.459 54.9873 216.301 60.0505 206.26 60.0505H197.353V0.738281H197.434ZM206.746 26.4563C212.252 26.4563 213.872 23.8845 213.872 16.3298V13.4366C213.872 7.73038 211.685 4.59599 206.098 4.59599H201.726V26.4563H206.746ZM201.726 56.1928H206.098C213.305 56.1928 215.086 52.6566 215.086 44.3786V40.1994C215.086 33.2877 212.252 30.314 206.584 30.314H201.726V56.1928Z" fill="#001B2F"/>
<path d="M232.647 38.9939L229.327 59.9702H224.873L234.833 0.738281H241.149L251.514 60.0505H246.898L243.335 38.9939H232.647ZM242.687 34.9754C240.096 19.8661 238.477 9.41813 237.991 4.59599H237.748C237.586 8.93591 235.157 22.7594 233.294 34.9754H242.687Z" fill="#001B2F"/>
<path d="M256.854 0.738281H261.308V56.0321H276.288L275.641 59.9702H256.854V0.738281Z" fill="#001B2F"/>
<path d="M289.421 38.9939L286.021 60.0505H281.648L291.527 0.738281H297.843L308.207 60.0505H303.592L300.029 38.9939H289.421ZM299.462 34.9754C296.871 19.8661 295.252 9.41813 294.766 4.59599H294.523C294.361 8.93591 291.932 22.7594 290.069 34.9754H299.462Z" fill="#001B2F"/>
<path d="M313.63 59.9702V0.738281H319.055C322.861 13.5169 332.011 45.8252 333.226 51.8529H333.388C333.064 43.4142 332.902 35.0558 332.902 25.4919V0.738281H337.193V60.0505H331.849C327.8 46.1467 318.812 13.4366 317.274 7.16779H317.193C317.598 14.3206 317.841 24.7686 317.841 35.4576V60.0505H313.63V59.9702Z" fill="#001B2F"/>
<path d="M364.985 43.6403V45.4084C364.985 53.4453 363.447 60.8393 353.892 60.8393C344.013 60.8393 342.636 53.2846 342.636 44.7655V14.386C342.636 4.66139 346.685 0 353.892 0C363.123 0 364.662 6.83135 364.662 14.3057V16.3953H360.127V14.2253C360.127 9.00131 359.479 3.93807 353.73 3.93807C348.305 3.93807 347.09 8.35837 347.09 14.4664V44.8458C347.09 52.2398 348.791 56.7404 353.973 56.7404C359.56 56.7404 360.37 51.7576 360.37 45.4084V43.4796H364.985V43.6403Z" fill="#001B2F"/>
<path d="M388.381 30.1533H374.777V56.0321H390L389.353 59.9702H370.405V0.738281H389.11V4.75673H374.777V26.2152H388.381V30.1533Z" fill="#001B2F"/>
</svg>
