<svg width="374" height="59" viewBox="0 0 374 59" fill="none" xmlns="http://www.w3.org/2000/svg">
<path d="M28.343 39.4111V42.5204C28.343 49.7497 27.0229 59 13.8997 59C4.19321 59 0 53.8696 0 43.2978V15.2358C0 5.2859 4.96973 0 14.1327 0C26.2464 0 28.1877 7.92885 28.1877 15.469V19.0448H17.0835V14.1476C17.0835 10.9605 16.3846 9.4058 14.1327 9.4058C11.8808 9.4058 11.1042 10.8827 11.1042 14.1476V44.4638C11.1042 47.4954 11.6478 49.5942 14.1327 49.5942C16.5399 49.5942 17.2388 47.8063 17.2388 44.2306V39.4888H28.343V39.4111Z" fill="white"/>
<path d="M45.71 44.6371L44.3123 58.2406H33.0527L41.1285 0.950684H57.5131L65.8219 58.2406H54.4071L52.854 44.6371H45.71ZM51.8445 34.9204C51.068 27.6134 49.9032 16.4197 49.3597 10.9784H48.8938C48.6608 14.9428 47.3407 27.8466 46.5642 34.9204H51.8445Z" fill="white"/>
<path d="M81.5661 33.3657V58.2406H70.6172V0.950684H84.9052C94.4564 0.950684 99.2708 5.14831 99.2708 15.176V17.1971C99.2708 25.3591 96.0094 27.7689 93.5245 28.9349C97.0965 30.645 98.7272 33.288 98.7272 41.2946C98.7272 46.8137 98.6496 55.2089 99.1155 58.1628H88.4771C87.7783 55.5976 87.8559 48.1351 87.8559 40.8282C87.8559 34.3763 87.1571 33.288 82.9639 33.288H81.5661V33.3657ZM81.6438 24.6595H83.0415C86.6912 24.6595 88.2442 23.4935 88.2442 18.1299V15.3315C88.2442 11.5225 87.4677 9.57914 83.4298 9.57914H81.7214V24.6595H81.6438Z" fill="white"/>
<path d="M104.218 0.950684H117.73C129.533 0.950684 133.571 6.31432 133.571 18.2076V39.7399C133.571 49.6121 131.474 58.2406 118.429 58.2406H104.141V0.950684H104.218ZM115.245 49.3789H117.419C121.768 49.3789 122.467 46.5805 122.467 42.0719V16.4197C122.467 12.2221 121.535 9.89008 117.342 9.89008H115.245V49.3789Z" fill="white"/>
<path d="M149.405 0.950684H138.378V58.2406H149.405V0.950684Z" fill="white"/>
<path d="M184.047 16.1686V42.7536C184.047 54.1028 178.689 59 168.672 59C159.198 59 154.306 54.025 154.306 42.9091V15.8577C154.306 4.8195 160.363 0 169.215 0C178.068 0 184.047 4.74177 184.047 16.1686ZM165.488 14.9249V44.2306C165.488 47.8063 166.73 49.5942 169.138 49.5942C171.7 49.5942 172.865 47.8841 172.865 44.1528V14.8472C172.865 11.2714 171.856 9.4058 169.138 9.4058C166.73 9.48353 165.488 11.1159 165.488 14.9249Z" fill="white"/>
<path d="M189.334 0.713867H198.031C206.185 0.713867 209.213 5.45563 209.213 12.7626V15.6388C209.213 23.6454 207.039 26.2106 203.933 27.2988C207.427 28.2316 210.455 31.4187 210.455 38.8035V43.0011C210.455 53.1842 207.427 58.0815 197.798 58.0815H189.256V0.713867H189.334ZM198.264 25.5887C203.544 25.5887 205.097 23.1012 205.097 15.7942V12.9958C205.097 7.47672 203.001 4.44509 197.643 4.44509H193.45V25.5887H198.264ZM193.45 54.3502H197.643C204.554 54.3502 206.262 50.9299 206.262 42.9234V38.8812C206.262 32.1961 203.544 29.3199 198.109 29.3199H193.45V54.3502Z" fill="white"/>
<path d="M223.102 37.7152L219.918 58.0037H215.647L225.198 0.713867H231.255L241.195 58.0815H236.768L233.352 37.7152H223.102ZM232.73 33.8285C230.246 19.2145 228.693 9.10913 228.227 4.44509H227.994C227.838 8.64272 225.509 22.0129 223.723 33.8285H232.73Z" fill="white"/>
<path d="M246.316 0.713867H250.587V54.1948H264.953L264.332 58.0037H246.316V0.713867Z" fill="white"/>
<path d="M277.547 37.7152L274.286 58.0815H270.093L279.566 0.713867H285.623L295.563 58.0815H291.136L287.72 37.7152H277.547ZM287.176 33.8285C284.691 19.2145 283.138 9.10913 282.672 4.44509H282.439C282.284 8.64272 279.955 22.0129 278.169 33.8285H287.176Z" fill="white"/>
<path d="M300.763 58.0042V0.714355H305.965C309.615 13.074 318.39 44.323 319.554 50.1531H319.71C319.399 41.991 319.244 33.9067 319.244 24.6564V0.714355H323.359V58.0819H318.234C314.352 44.634 305.732 12.9963 304.257 6.93306H304.179C304.568 13.8514 304.801 23.9568 304.801 34.2954V58.0819H300.763V58.0042Z" fill="white"/>
<path d="M350.011 42.2095V43.9196C350.011 51.693 348.536 58.8445 339.373 58.8445C329.899 58.8445 328.579 51.5375 328.579 43.2978V13.9144C328.579 4.50856 332.462 0 339.373 0C348.225 0 349.701 6.60737 349.701 13.8366V15.8577H345.352V13.7589C345.352 8.70619 344.731 3.80895 339.218 3.80895C334.015 3.80895 332.85 8.08432 332.85 13.9921V43.3755C332.85 50.527 334.481 54.8801 339.45 54.8801C344.808 54.8801 345.585 50.0606 345.585 43.9196V42.054H350.011V42.2095Z" fill="white"/>
<path d="M372.447 29.1649H359.402V54.1952H374L373.379 58.0042H355.208V0.714355H373.146V4.60105H359.402V25.356H372.447V29.1649Z" fill="white"/>
</svg>
