<svg width="44" height="44" viewBox="0 0 44 44" fill="none" xmlns="http://www.w3.org/2000/svg">
<g opacity="0.7" clip-path="url(#clip0)">
<path d="M34.6779 2.31016C33.5832 1.27988 32.1823 0.785156 30.7704 0.785156C29.181 0.785156 27.5759 1.41181 26.3791 2.61014C26.0956 2.89365 25.635 2.89251 25.352 2.60857C24.1552 1.41181 22.5501 0.785156 20.9607 0.785156C19.5488 0.785156 18.1478 1.27988 17.0532 2.31016C14.6455 4.57647 14.6031 8.36778 16.9244 10.6891L23.7442 17.5089C24.9158 18.6805 26.8153 18.6805 27.9869 17.5089L34.8067 10.6891C37.128 8.36778 37.0856 4.57647 34.6779 2.31016Z" fill="white"/>
<path d="M43.4258 23.4104C42.0515 22.479 40.4323 22.7429 38.9984 23.5706C37.7918 24.267 31.7709 29.3618 29.8924 30.9596C29.5295 31.2683 29.0698 31.4375 28.5934 31.4376L21.2276 31.439C20.8507 31.439 20.4423 31.015 20.4423 30.6396C20.4423 30.1983 20.8271 29.8543 21.2276 29.8543H26.1858C27.9213 29.8543 29.864 28.7235 29.864 26.7132C29.864 24.5773 27.9213 23.5721 26.1858 23.5721C23.4872 23.5721 22.7368 23.5822 22.6102 23.5843C22.5959 23.5845 22.5821 23.5847 22.5678 23.5847C21.3686 23.5838 20.154 23.5095 19.2173 23.0083C17.9608 22.3644 16.5128 22 14.9674 22C12.3728 22 10.05 23.035 8.45742 24.6668L1.43627 31.5797C0.64485 32.359 0.639898 33.6338 1.42524 34.4191L8.0091 41.003C8.79015 41.784 10.0565 41.784 10.8375 41.003L11.9786 39.8619C12.3537 39.4868 12.8624 39.2761 13.3928 39.2761H28.4694C30.0525 39.2761 31.5807 38.695 32.7633 37.6443L43.5326 25.5636C44.1906 24.9793 44.1529 23.9051 43.4258 23.4104Z" fill="white"/>
</g>
<defs>
<clipPath id="clip0">
<rect width="44" height="44" fill="white"/>
</clipPath>
</defs>
</svg>
