<svg width="44" height="44" viewBox="0 0 44 44" fill="none" xmlns="http://www.w3.org/2000/svg">
<g opacity="0.7">
<path d="M38.4772 26.1417V16.4766C38.4772 15.7647 37.9 15.1875 37.1881 15.1875H26.1423C25.4304 15.1875 24.8533 15.7647 24.8533 16.4766V26.1417C24.8533 29.4571 27.2345 32.2253 30.3762 32.8297V41.4214H27.5231C26.8112 41.4214 26.234 41.9985 26.234 42.7105C26.234 43.4224 26.8112 43.9995 27.5231 43.9995H35.8075C36.5194 43.9995 37.0965 43.4224 37.0965 42.7105C37.0965 41.9985 36.5194 41.4214 35.8075 41.4214H32.9543V32.8298C36.096 32.2254 38.4772 29.4571 38.4772 26.1417Z" fill="white"/>
<path d="M17.7664 1.28906C17.7664 0.577156 17.1892 0 16.4773 0H10.9543C10.2424 0 9.66528 0.577156 9.66528 1.28906V8.28438H17.7664V1.28906Z" fill="white"/>
<path d="M17.7662 15.3423V10.8623H9.66514V15.3421C7.2906 15.9217 5.52295 18.0671 5.52295 20.6177V42.7108C5.52295 43.4227 6.10011 43.9998 6.81201 43.9998H20.6193C21.3312 43.9998 21.9084 43.4227 21.9084 42.7108V38.4769H12.335C11.6231 38.4769 11.0459 37.8997 11.0459 37.1878V21.9998C11.0459 21.2879 11.6231 20.7107 12.335 20.7107H21.9084V20.6177C21.9084 18.0676 20.1411 15.9223 17.7662 15.3423Z" fill="white"/>
<path d="M13.624 23.2891H21.9084V30.3761H13.624V23.2891Z" fill="white"/>
<path d="M13.624 32.9541H21.9084V35.8989H13.624V32.9541Z" fill="white"/>
</g>
</svg>
