<svg width="44" height="44" viewBox="0 0 44 44" fill="none" xmlns="http://www.w3.org/2000/svg">
<g opacity="0.7">
<path d="M21.9343 0C12.6941 0 5.17651 7.51755 5.17651 16.7578C5.17651 25.9981 12.6941 33.5156 21.9343 33.5156C31.1746 33.5156 38.6921 25.9981 38.6921 16.7578C38.6921 7.51755 31.1746 0 21.9343 0ZM19.3562 28.3594C18.6443 28.3594 18.0671 27.7822 18.0671 27.0703C18.0671 26.3584 18.6443 25.7812 19.3562 25.7812C20.0681 25.7812 20.6453 26.3584 20.6453 27.0703C20.6453 27.7822 20.0681 28.3594 19.3562 28.3594ZM24.5125 28.3594C23.8005 28.3594 23.2234 27.7822 23.2234 27.0703C23.2234 26.3584 23.8005 25.7812 24.5125 25.7812C25.2244 25.7812 25.8015 26.3584 25.8015 27.0703C25.8015 27.7822 25.2244 28.3594 24.5125 28.3594ZM25.8842 14.6309L22.8459 17.6693C22.5942 17.921 22.2642 18.0469 21.9343 18.0469C21.6044 18.0469 21.2745 17.921 21.0229 17.6693C20.5195 17.1659 20.5195 16.3497 21.0229 15.8463L24.0612 12.808C24.5645 12.3046 25.3808 12.3046 25.8842 12.808C26.3876 13.3114 26.3876 14.1276 25.8842 14.6309ZM30.7418 25.5653C30.4901 25.817 30.1602 25.9429 29.8304 25.9429C29.5021 25.9429 29.174 25.818 28.9228 25.5688L28.9226 25.569L27.0996 23.746C26.5962 23.2427 26.5962 22.4264 27.0996 21.923C27.6029 21.4197 28.4192 21.4197 28.9226 21.923L29.7717 22.7721C30.8362 21.3922 31.5092 19.7712 31.7334 18.0468H30.5281C29.8162 18.0468 29.239 17.4696 29.239 16.7577C29.239 16.0458 29.8162 15.4687 30.5281 15.4687H31.7331C31.5025 13.7063 30.8057 12.089 29.7711 10.744L28.9225 11.5925C28.6708 11.8443 28.3409 11.9701 28.0111 11.9701C27.6812 11.9701 27.3512 11.8443 27.0996 11.5925C26.5962 11.0892 26.5962 10.273 27.0996 9.76955L27.9481 8.921C26.6031 7.88648 24.9857 7.18962 23.2234 6.95905V8.16406C23.2234 8.87597 22.6462 9.45312 21.9343 9.45312C21.2224 9.45312 20.6453 8.87597 20.6453 8.16406V6.95905C18.8829 7.18962 17.2656 7.88648 15.9206 8.92109L16.7691 9.76963C17.2726 10.273 17.2726 11.0892 16.7691 11.5926C16.5174 11.8443 16.1875 11.9702 15.8577 11.9702C15.5279 11.9702 15.1979 11.8443 14.9462 11.5926L14.0977 10.7441C13.0631 12.0891 12.3662 13.7065 12.1356 15.4688H13.3406C14.0525 15.4688 14.6296 16.0459 14.6296 16.7578C14.6296 17.4697 14.0525 18.0469 13.3406 18.0469H12.1352C12.3594 19.7713 13.0324 21.3922 14.097 22.7721L14.9461 21.9231C15.4494 21.4198 16.2656 21.4198 16.7691 21.9231C17.2725 22.4264 17.2725 23.2427 16.7691 23.7461L14.9461 25.5691L14.9459 25.5689C14.4422 26.0685 13.6289 26.0675 13.1268 25.5654C10.7709 23.2094 9.47339 20.0815 9.47339 16.7578C9.47339 9.88685 15.0634 4.29688 21.9343 4.29688C28.8053 4.29688 34.3953 9.88685 34.3953 16.7578C34.3953 20.0815 33.0978 23.2094 30.7418 25.5653Z" fill="white"/>
<path d="M27.0906 41.422H25.8015V35.7051C24.5516 35.9598 23.2584 36.0939 21.9343 36.0939C20.6103 36.0939 19.317 35.9598 18.0671 35.7051V41.422H16.7781C16.0662 41.422 15.489 41.9991 15.489 42.711C15.489 43.423 16.0662 44.0001 16.7781 44.0001H27.0906C27.8025 44.0001 28.3796 43.423 28.3796 42.711C28.3796 41.9991 27.8025 41.422 27.0906 41.422Z" fill="white"/>
</g>
</svg>
