<svg width="44" height="44" viewBox="0 0 44 44" fill="none" xmlns="http://www.w3.org/2000/svg">
<g opacity="0.7">
<path d="M24.7203 21.0387C27.8327 20.6479 30.9017 21.9005 32.8699 24.325C33.0143 24.503 33.2722 24.5419 33.4573 24.4068C34.3489 23.7553 35.1165 22.9414 35.7184 22.0018C39.4694 16.1494 35.304 8.25 28.1877 8.25C23.5439 8.25 19.7165 11.8088 19.2905 16.3425C19.2733 16.5256 19.3744 16.7005 19.5427 16.7748C21.4853 17.634 23.1449 19.0497 24.3108 20.8495C24.3991 20.986 24.559 21.0589 24.7203 21.0387Z" fill="white"/>
<path d="M28.1875 6.875C28.9469 6.875 29.5625 6.25934 29.5625 5.5V2.75C29.5625 1.99066 28.9469 1.375 28.1875 1.375C27.4281 1.375 26.8125 1.99066 26.8125 2.75V5.5C26.8125 6.25934 27.4281 6.875 28.1875 6.875Z" fill="white"/>
<path d="M42.625 15.8125H39.875C39.1156 15.8125 38.5 16.4282 38.5 17.1875C38.5 17.9468 39.1156 18.5625 39.875 18.5625H42.625C43.3844 18.5625 44 17.9468 44 17.1875C44 16.4282 43.3844 15.8125 42.625 15.8125Z" fill="white"/>
<path d="M37.4242 24.4799C36.8873 23.9429 36.0167 23.9429 35.4797 24.4799C34.9426 25.0169 34.9426 25.8874 35.4797 26.4244L37.4242 28.3689C37.6926 28.6374 38.0445 28.7717 38.3964 28.7717C39.6105 28.7717 40.2373 27.2929 39.3686 26.4244L37.4242 24.4799Z" fill="white"/>
<path d="M18.951 9.89524C19.488 10.4323 20.3585 10.4323 20.8955 9.89524C21.4326 9.35821 21.4326 8.48766 20.8955 7.95073L18.951 6.00622C18.4143 5.46928 17.5436 5.46928 17.0065 6.00622C16.4695 6.54324 16.4695 7.41379 17.0065 7.95073L18.951 9.89524Z" fill="white"/>
<path d="M36.452 10.2981C36.8039 10.2981 37.1557 10.1638 37.4242 9.89526L39.3687 7.95076C39.9057 7.41373 39.9057 6.54319 39.3687 6.00625C38.8318 5.46931 37.9611 5.46923 37.4242 6.00625L35.4798 7.95084C34.6109 8.81958 35.238 10.2981 36.452 10.2981Z" fill="white"/>
<path d="M32.0143 31.2815C33.0743 26.0588 27.6048 22.0321 22.9664 24.4122C21.9469 21.0479 18.8222 18.5986 15.125 18.5986C10.3268 18.5986 6.53864 22.7081 6.96523 27.5238C3.0678 27.8282 0 31.0872 0 35.0628C0 39.2278 3.37434 42.6253 7.5625 42.6253H32.1406C35.2731 42.6253 37.8125 40.0859 37.8125 36.9534C37.8125 33.9595 35.4567 31.2815 32.0143 31.2815Z" fill="white"/>
</g>
</svg>
