<svg width="44" height="44" viewBox="0 0 44 44" fill="none" xmlns="http://www.w3.org/2000/svg">
<g opacity="0.7">
<path d="M9.16675 18.3333V22.9166H34.8334V18.3333C34.8334 15.807 36.8886 13.75 39.4167 13.75H40.3334V11C40.3334 9.4838 39.0996 8.25 37.5834 8.25H6.41675C4.90055 8.25 3.66675 9.4838 3.66675 11V13.75H4.58344C7.11155 13.75 9.16675 15.807 9.16675 18.3333Z" fill="white"/>
<path d="M41.25 15.583H39.4167C37.9005 15.583 36.6667 16.8168 36.6667 18.333V23.833C36.6667 24.339 36.256 24.7497 35.75 24.7497H8.25C7.744 24.7497 7.3333 24.339 7.3333 23.833V18.333C7.3333 16.8168 6.0995 15.583 4.5833 15.583H2.75C1.2338 15.583 0 16.8168 0 18.333V29.333C0 30.8492 1.2338 32.083 2.75 32.083H3.6667V34.833C3.6667 35.339 4.07739 35.7497 4.58339 35.7497H10.0834C10.5894 35.7497 11.0001 35.339 11.0001 34.833V32.083H33.0001V34.833C33.0001 35.339 33.4108 35.7497 33.9168 35.7497H39.4168C39.9228 35.7497 40.3335 35.339 40.3335 34.833V32.083H41.25C42.7662 32.083 44 30.8492 44 29.333V18.333C44 16.8169 42.7662 15.583 41.25 15.583Z" fill="white"/>
</g>
</svg>
