<svg width="44" height="44" viewBox="0 0 44 44" fill="none" xmlns="http://www.w3.org/2000/svg">
<g opacity="0.7">
<path d="M26.9552 20.2615C24.7929 18.0941 23.6016 15.2109 23.6016 12.1438C23.6016 11.4091 23.6712 10.6906 23.8036 9.99367C21.4314 10.0873 19.0551 11.049 17.0448 13.0591C14.9331 10.9476 12.5042 9.99023 9.88118 9.99023C7.24006 9.99023 4.75707 11.018 2.89034 12.8846C-0.963445 16.738 -0.963445 23.008 2.89034 26.8623L16.1337 40.1036C16.6391 40.6089 17.4538 40.6072 17.9575 40.1036L31.1992 26.8632C32.1661 25.8973 32.9121 24.7586 33.4054 23.5099C30.9689 23.155 28.7223 22.0327 26.9552 20.2615ZM25.9479 25.0396H21.9807L19.4281 29.8684C18.9118 30.8473 17.4838 30.7592 17.086 29.7309L13.8278 21.3073L12.1991 24.3573C11.9748 24.7775 11.5373 25.0396 11.062 25.0396H7.30537C6.59287 25.0396 6.01623 24.4621 6.01623 23.7505C6.01623 23.0381 6.59295 22.4615 7.30537 22.4615H10.2885L12.8781 17.6112C13.3973 16.6421 14.8197 16.7255 15.2184 17.7538L18.4706 26.1628L20.0641 23.1481C20.2875 22.7253 20.7259 22.4615 21.2037 22.4615H25.9479C26.6604 22.4615 27.237 23.0381 27.237 23.7505C27.2371 24.4621 26.6604 25.0396 25.9479 25.0396Z" fill="white"/>
<path d="M36.3129 12.1809C36.3129 12.8744 35.7482 13.439 35.0537 13.439C34.3593 13.439 33.7947 12.8744 33.7947 12.1809C33.7947 11.4865 34.3594 10.9219 35.0537 10.9219C35.7483 10.9219 36.3129 11.4865 36.3129 12.1809Z" fill="white"/>
<path d="M35.0899 3.23535C30.2245 3.23535 26.1799 7.17301 26.1799 12.1436C26.1799 17.0567 30.1455 21.0528 35.0899 21.0528C40.0035 21.0528 43.9999 17.0567 43.9999 12.1436C43.9999 7.23145 40.0034 3.23535 35.0899 3.23535ZM39.2721 9.78551L38.5209 10.5366C38.7581 11.035 38.8913 11.5928 38.8913 12.1806C38.8913 14.2955 37.1698 16.0168 35.0538 16.0168C32.9378 16.0168 31.2163 14.2955 31.2163 12.1806C31.2163 10.0648 32.9378 8.34348 35.0538 8.34348C35.6416 8.34348 36.1985 8.47668 36.697 8.71387L37.4482 7.96277C37.9519 7.45918 38.7683 7.45918 39.272 7.96277C39.7757 8.46637 39.7757 9.28191 39.2721 9.78551Z" fill="white"/>
</g>
</svg>
