<svg width="210" height="210" viewBox="0 0 210 210" fill="none" xmlns="http://www.w3.org/2000/svg">
<path d="M105 104.999V1C136.649 1 166.577 15.4122 186.31 40.1567L105 104.999Z" fill="#C72D3F" stroke="#C72D3F"/>
<path d="M105 104.999L186.31 40.1567C206.043 64.9013 213.434 97.2851 206.392 128.141L105 104.999Z" fill="#EC9197" stroke="#EC9197"/>
<path d="M105 104.999L206.392 128.141C199.349 158.997 178.639 184.967 150.124 198.699L105 104.999Z" fill="#EC9197" stroke="#EC9197"/>
<path d="M105 104.999L150.123 198.699C121.608 212.431 88.3917 212.431 59.8765 198.699L105 104.999Z" fill="#EC9197" stroke="#EC9197"/>
<path d="M105 104.999L59.8765 198.699C31.3613 184.967 10.6511 158.997 3.6084 128.141L105 104.999Z" fill="#EC9197" stroke="#EC9197"/>
<path d="M105 104.999L3.60841 128.141C-3.43426 97.2851 3.95713 64.9013 23.6903 40.1567L105 104.999Z" fill="#EC9197" stroke="#EC9197"/>
<path d="M105 104.999L23.6902 40.1567C43.4233 15.4122 73.3505 1 105 1V104.999Z" fill="#EC9197" stroke="#EC9197"/>
</svg>
