<svg width="12" height="12" viewBox="0 0 12 12" fill="none" xmlns="http://www.w3.org/2000/svg">
<path d="M5.99662 12C5.4733 11.9692 4.94811 11.9548 4.42712 11.9026C3.9943 11.8592 3.56397 11.7825 3.1369 11.6998C2.82688 11.6399 2.5195 11.5593 2.21895 11.4649C1.62592 11.2784 1.0627 11.0329 0.594331 10.6232C0.346253 10.4061 0.154839 10.1508 0.0601404 9.83928C-0.00552722 9.62338 -0.0174809 9.40273 0.0245899 9.17821C0.110284 8.72115 0.272823 8.2904 0.521211 7.8937C0.657204 7.67662 0.811049 7.46563 0.984456 7.27501C1.17789 7.06239 1.37846 6.84977 1.62964 6.69513C1.94665 6.49991 2.25325 6.28847 2.6145 6.16462C2.89208 6.06946 3.17276 5.9905 3.46306 5.94501C3.6166 5.92092 3.77324 5.91646 3.92739 5.89534C4.08108 5.87423 4.21894 5.90917 4.35617 5.97177C4.48378 6.03006 4.61558 6.08016 4.74785 6.12819C4.88043 6.17621 5.01316 6.22736 5.15055 6.25829C5.28002 6.28743 5.41539 6.29234 5.54828 6.30751C5.6762 6.32208 5.80381 6.33977 5.9322 6.34899C5.98762 6.35286 6.04444 6.33278 6.10048 6.33382C6.36967 6.33873 6.63032 6.28818 6.88958 6.22826C7.0324 6.19525 7.17848 6.17012 7.31541 6.1212C7.45932 6.0699 7.5936 5.99407 7.7327 5.92999C7.7577 5.91839 7.78486 5.90545 7.81172 5.90367C8.16505 5.88152 8.51342 5.91809 8.85417 6.00522C9.0178 6.04701 9.17522 6.11124 9.33481 6.16714C9.45745 6.21026 9.58335 6.24773 9.70025 6.3026C10.3692 6.61603 10.9104 7.07265 11.3278 7.66175C11.5369 7.95675 11.7091 8.27196 11.8168 8.61498C11.8791 8.81318 11.9399 9.01347 11.9781 9.21672C12.0349 9.51975 11.9791 9.81281 11.8341 10.0879C11.6268 10.4809 11.2902 10.7527 10.9076 10.9781C10.5395 11.195 10.1464 11.362 9.73192 11.4765C9.37331 11.5755 9.01206 11.6692 8.64708 11.7428C7.71252 11.9313 6.89377 11.9768 5.99662 12Z" fill="#349EFF"/>
<path d="M8.83958 2.72251C8.84595 4.25845 7.56271 5.28543 6.39917 5.42118C5.45467 5.53136 4.6443 5.27234 3.97691 4.63418C3.43139 4.11243 3.16267 3.46981 3.15661 2.72578C3.14481 1.24039 4.43488 -0.00813786 6.01665 3.9947e-05C7.56131 0.00806906 8.85247 1.23251 8.83958 2.72251Z" fill="#349EFF"/>
</svg>
