<svg width="54" height="54" viewBox="0 0 54 54" fill="none" xmlns="http://www.w3.org/2000/svg">
<g clip-path="url(#clip0)">
<path d="M52.9205 39.3448L34.002 6.57651C30.9119 1.1633 23.0978 1.1633 20.0188 6.57651L1.08923 39.3448C-2.00086 44.758 1.84508 51.4829 8.08084 51.4829H45.8622C52.098 51.4829 56.0106 44.6913 52.9205 39.3448ZM26.9993 44.2134C25.3542 44.2134 23.987 42.8462 23.987 41.2011C23.987 39.556 25.3542 38.1888 26.9993 38.1888C28.6444 38.1888 30.0116 39.556 29.9449 41.2789C30.0227 42.8462 28.5777 44.2134 26.9993 44.2134ZM29.7448 24.7391C29.6114 27.0734 29.4669 29.3965 29.3335 31.7307C29.2669 32.4866 29.2669 33.1757 29.2669 33.9205C29.2002 35.1543 28.2331 36.1102 26.9993 36.1102C25.7655 36.1102 24.8096 35.221 24.7318 33.9872C24.5317 30.3524 24.3205 26.7844 24.1204 23.1496C24.0537 22.1937 23.987 21.2267 23.9092 20.2707C23.9092 18.6923 24.7985 17.3918 26.2435 16.9806C27.6885 16.636 29.1224 17.3251 29.7448 18.6923C29.956 19.1703 30.0227 19.6483 30.0227 20.204C29.956 21.7268 29.8115 23.2385 29.7448 24.7391Z" fill="#92C7F8"/>
</g>
<defs>
<clipPath id="clip0">
<rect width="54" height="54" fill="white"/>
</clipPath>
</defs>
</svg>
