<svg width="56" height="55" viewBox="0 0 56 55" fill="none" xmlns="http://www.w3.org/2000/svg">
<g opacity="0.6" clip-path="url(#clip0)">
<path d="M30.0833 9.19601C30.7126 9.82529 31.7327 9.82529 32.362 9.19601C32.9913 8.56673 32.9913 7.54655 32.362 6.91727L32.3475 6.90277C39.3509 8.39067 45.2804 13.4023 47.7905 20.2975C48.0948 21.1337 49.0195 21.5649 49.8558 21.2605C50.692 20.956 51.123 20.0313 50.8186 19.1952C49.1312 14.5597 46.107 10.5901 42.0727 7.71563C38.9398 5.4833 35.3792 4.05115 31.6218 3.49094L32.362 2.7507C32.9913 2.12142 32.9913 1.10124 32.362 0.471958C31.7327 -0.157319 30.7126 -0.157319 30.0833 0.471958L26.8606 3.69461C26.2314 4.32389 26.2314 5.34408 26.8606 5.97335L30.0833 9.19601Z" fill="white"/>
<path d="M6.47335 28.6391L9.69601 25.4165C10.3253 24.7872 10.3253 23.767 9.69601 23.1377C9.06673 22.5085 8.04655 22.5085 7.41727 23.1377L7.40277 23.1522C8.89067 16.1489 13.9023 10.2194 20.7975 7.70927C21.6337 7.40495 22.0649 6.48026 21.7605 5.64398C21.456 4.80781 20.5313 4.37672 19.6952 4.68116C15.0597 6.36854 11.0901 9.39279 8.21563 13.427C5.9833 16.56 4.55115 20.1206 3.99094 23.878L3.2507 23.1377C2.62142 22.5085 1.60124 22.5085 0.971958 23.1377C0.342681 23.767 0.342681 24.7872 0.971958 25.4165L4.19461 28.6391C4.82389 29.2684 5.84408 29.2684 6.47335 28.6391Z" fill="white"/>
<path d="M25.9167 45.8042C25.2875 45.1749 24.2673 45.1749 23.638 45.8042C23.0087 46.4335 23.0087 47.4536 23.638 48.0829L23.6525 48.0974C16.6491 46.6095 10.7196 41.5979 8.20952 34.7027C7.90519 33.8665 6.9805 33.4353 6.14422 33.7397C5.30805 34.0442 4.87697 34.9689 5.1814 35.805C6.86878 40.4405 9.89303 44.4101 13.9273 47.2846C17.0602 49.5169 20.6208 50.949 24.3782 51.5092L23.638 52.2495C23.0087 52.8788 23.0087 53.899 23.638 54.5282C24.2673 55.1575 25.2875 55.1575 25.9167 54.5282L29.1394 51.3056C29.7687 50.6763 29.7687 49.6561 29.1394 49.0268L25.9167 45.8042Z" fill="white"/>
<path d="M55.028 29.5833L51.8053 26.3606C51.1761 25.7314 50.1559 25.7314 49.5266 26.3606L46.3039 29.5833C45.6747 30.2126 45.6747 31.2327 46.3039 31.862C46.9332 32.4913 47.9534 32.4913 48.5827 31.862L48.5972 31.8475C47.1093 38.8509 42.0977 44.7804 35.2024 47.2905C34.3662 47.5948 33.9351 48.5195 34.2395 49.3558C34.5439 50.192 35.4686 50.623 36.3048 50.3186C40.9403 48.6312 44.9098 45.607 47.7843 41.5727C50.0166 38.4398 51.4488 34.8792 52.009 31.1218L52.7492 31.862C53.3785 32.4913 54.3987 32.4913 55.028 31.862C55.6573 31.2327 55.6573 30.2126 55.028 29.5833Z" fill="white"/>
<path d="M28.0001 33.0132L25.1396 38.2573C24.5835 39.277 24.6054 40.4821 25.1984 41.4808C25.7912 42.4796 26.8386 43.0759 28.0001 43.0759C29.1617 43.0759 30.209 42.4796 30.8019 41.4808C31.3949 40.4821 31.4168 39.277 30.8606 38.2573L28.0001 33.0132Z" fill="white"/>
<path d="M34.2845 41.4214C38.1614 39.2235 40.7833 35.0591 40.7833 30.2932C40.7833 26.3157 39.6045 22.4721 37.3745 19.1783L35.8514 16.9288C35.5216 16.4419 34.9513 16.1728 34.3674 16.228C33.7818 16.2827 33.2725 16.652 33.0387 17.1917C32.3282 18.8314 31.0622 20.1605 29.4995 20.9639C28.9098 16.8339 26.0393 13.3407 21.9877 12.0051C21.3991 11.8111 20.7511 11.9729 20.3214 12.4201C19.9048 12.8538 19.7658 13.4828 19.9564 14.05C20.9229 16.9534 20.273 20.1856 18.2601 22.4862L18.0681 22.7054C16.2297 24.8066 15.2171 27.5013 15.217 30.2932C15.217 35.0591 17.839 39.2235 21.7157 41.4214C21.3107 39.8571 21.5066 38.1886 22.3105 36.7146L26.5857 28.877C26.8679 28.3594 27.4105 28.0373 28.0001 28.0373C28.5898 28.0373 29.1324 28.3594 29.4147 28.877L33.6898 36.7146C34.4937 38.1886 34.6897 39.8571 34.2845 41.4214Z" fill="white"/>
</g>
<defs>
<clipPath id="clip0">
<rect width="55" height="55" fill="white" transform="translate(0.5)"/>
</clipPath>
</defs>
</svg>
