<svg width="56" height="55" viewBox="0 0 56 55" fill="none" xmlns="http://www.w3.org/2000/svg">
<g opacity="0.6">
<path d="M34.194 25.3269C31.4911 22.6177 30.002 19.0137 30.002 15.1798C30.002 14.2613 30.089 13.3633 30.2545 12.4921C27.2893 12.6092 24.3189 13.8112 21.8059 16.3238C19.1664 13.6845 16.1303 12.4878 12.8515 12.4878C9.55008 12.4878 6.44634 13.7726 4.11292 16.1058C-0.704306 20.9226 -0.704306 28.7601 4.11292 33.5779L20.6672 50.1295C21.2989 50.7611 22.3173 50.759 22.9469 50.1295L39.499 33.579C40.7076 32.3716 41.6401 30.9482 42.2567 29.3874C39.2111 28.9437 36.4029 27.5408 34.194 25.3269ZM32.9349 31.2995H27.9758L24.7851 37.3355C24.1398 38.5591 22.3548 38.449 21.8575 37.1637L17.7847 26.6342L15.7489 30.4466C15.4685 30.9719 14.9216 31.2995 14.3276 31.2995H9.63172C8.74108 31.2995 8.02028 30.5776 8.02028 29.6882C8.02028 28.7977 8.74119 28.0769 9.63172 28.0769H13.3607L16.5976 22.014C17.2466 20.8027 19.0247 20.9069 19.523 22.1923L23.5883 32.7035L25.5801 28.9352C25.8594 28.4066 26.4074 28.0769 27.0046 28.0769H32.9349C33.8255 28.0769 34.5463 28.7977 34.5463 29.6882C34.5464 30.5776 33.8255 31.2995 32.9349 31.2995Z" fill="white"/>
<path d="M45.8914 15.2256C45.8914 16.0925 45.1856 16.7982 44.3175 16.7982C43.4494 16.7982 42.7437 16.0925 42.7437 15.2256C42.7437 14.3576 43.4495 13.6519 44.3175 13.6519C45.1857 13.6519 45.8914 14.3576 45.8914 15.2256Z" fill="white"/>
<path d="M44.3626 4.04395C38.2808 4.04395 33.2251 8.96602 33.2251 15.1793C33.2251 21.3206 38.1821 26.3157 44.3626 26.3157C50.5046 26.3157 55.5001 21.3206 55.5001 15.1793C55.5001 9.03906 50.5044 4.04395 44.3626 4.04395ZM49.5903 12.2316L48.6513 13.1705C48.9478 13.7936 49.1143 14.4907 49.1143 15.2255C49.1143 17.8691 46.9624 20.0208 44.3174 20.0208C41.6724 20.0208 39.5206 17.8691 39.5206 15.2255C39.5206 12.5808 41.6724 10.4291 44.3174 10.4291C45.0522 10.4291 45.7483 10.5956 46.3715 10.8921L47.3105 9.95322C47.9401 9.32373 48.9606 9.32373 49.5902 9.95322C50.2198 10.5827 50.2198 11.6021 49.5903 12.2316Z" fill="white"/>
</g>
</svg>
