<svg width="56" height="55" viewBox="0 0 56 55" fill="none" xmlns="http://www.w3.org/2000/svg">
<g opacity="0.6">
<path d="M27.918 0C16.3676 0 6.9707 9.39694 6.9707 20.9473C6.9707 32.4976 16.3676 41.8945 27.918 41.8945C39.4683 41.8945 48.8652 32.4976 48.8652 20.9473C48.8652 9.39694 39.4683 0 27.918 0ZM24.6953 35.4492C23.8054 35.4492 23.084 34.7278 23.084 33.8379C23.084 32.948 23.8054 32.2266 24.6953 32.2266C25.5852 32.2266 26.3066 32.948 26.3066 33.8379C26.3066 34.7278 25.5852 35.4492 24.6953 35.4492ZM31.1406 35.4492C30.2507 35.4492 29.5293 34.7278 29.5293 33.8379C29.5293 32.948 30.2507 32.2266 31.1406 32.2266C32.0305 32.2266 32.752 32.948 32.752 33.8379C32.752 34.7278 32.0305 35.4492 31.1406 35.4492ZM32.8553 18.2887L29.0574 22.0866C28.7428 22.4012 28.3304 22.5586 27.918 22.5586C27.5056 22.5586 27.0932 22.4012 26.7787 22.0866C26.1494 21.4574 26.1494 20.4371 26.7787 19.8078L30.5766 16.0099C31.2057 15.3808 32.226 15.3808 32.8553 16.0099C33.4846 16.6392 33.4846 17.6595 32.8553 18.2887ZM38.9273 31.9566C38.6127 32.2713 38.2003 32.4286 37.788 32.4286C37.3776 32.4286 36.9675 32.2725 36.6535 31.961L36.6533 31.9612L34.3746 29.6825C33.7453 29.0533 33.7453 28.033 34.3746 27.4038C35.0037 26.7746 36.024 26.7746 36.6533 27.4038L37.7146 28.4651C39.0454 26.7402 39.8866 24.714 40.1669 22.5585H38.6602C37.7703 22.5585 37.0488 21.837 37.0488 20.9472C37.0488 20.0573 37.7703 19.3358 38.6602 19.3358H40.1664C39.8782 17.1329 39.0071 15.1113 37.7139 13.43L36.6532 14.4907C36.3386 14.8053 35.9262 14.9627 35.5139 14.9627C35.1016 14.9627 34.6891 14.8053 34.3746 14.4907C33.7453 13.8615 33.7453 12.8412 34.3746 12.2119L35.4352 11.1512C33.7539 9.85811 31.7322 8.98702 29.5293 8.69881V10.2051C29.5293 11.095 28.8079 11.8164 27.918 11.8164C27.0281 11.8164 26.3066 11.095 26.3066 10.2051V8.69881C24.1037 8.98702 22.0821 9.85811 20.4008 11.1514L21.4615 12.212C22.0908 12.8412 22.0908 13.8615 21.4615 14.4908C21.1468 14.8054 20.7345 14.9628 20.3222 14.9628C19.9099 14.9628 19.4974 14.8054 19.1829 14.4908L18.1222 13.4301C16.8289 15.1114 15.9578 17.1331 15.6696 19.3359H17.1758C18.0657 19.3359 18.7871 20.0574 18.7871 20.9473C18.7871 21.8371 18.0657 22.5586 17.1758 22.5586H15.6691C15.9493 24.7141 16.7906 26.7402 18.1213 28.4652L19.1826 27.4039C19.8118 26.7747 20.8321 26.7747 21.4614 27.4039C22.0907 28.033 22.0907 29.0533 21.4614 29.6826L19.1826 31.9613L19.1824 31.9611C18.5528 32.5857 17.5362 32.5844 16.9085 31.9567C13.9637 29.0117 12.3418 25.1019 12.3418 20.9473C12.3418 12.3586 19.3293 5.37109 27.918 5.37109C36.5067 5.37109 43.4941 12.3586 43.4941 20.9473C43.4941 25.1019 41.8723 29.0117 38.9273 31.9566Z" fill="white"/>
<path d="M34.3633 51.7775H32.752V44.6313C31.1896 44.9497 29.573 45.1173 27.918 45.1173C26.2629 45.1173 24.6463 44.9497 23.084 44.6313V51.7775H21.4727C20.5828 51.7775 19.8613 52.4989 19.8613 53.3888C19.8613 54.2787 20.5828 55.0001 21.4727 55.0001H34.3633C35.2532 55.0001 35.9746 54.2787 35.9746 53.3888C35.9746 52.4989 35.2532 51.7775 34.3633 51.7775Z" fill="white"/>
</g>
</svg>
